<?xml version="1.0" encoding="UTF-8"?>
<!DOCTYPE svg PUBLIC "-//W3C//DTD SVG 1.1//EN"
    "http://www.w3.org/Graphics/SVG/1.1/DTD/svg11.dtd">
<svg xmlns="http://www.w3.org/2000/svg" height="401.8349" stroke-opacity="1" viewBox="0 0 400 402" font-size="1" width="400.0000" xmlns:xlink="http://www.w3.org/1999/xlink" stroke="rgb(0,0,0)" version="1.1">
  <defs>
  </defs>
  <g stroke-linejoin="miter" stroke-opacity="1.0" fill-opacity="1.0" stroke="rgb(0,0,0)" stroke-width="0.0" fill="rgb(112,128,144)" stroke-linecap="butt" stroke-miterlimit="10.0">
    <path d="M 400.0000,401.8349 l -0.0000,-401.8349 h -400.0000 l -0.0000,401.8349 Z"/>
  </g>
  <g stroke-linejoin="miter" stroke-opacity="1.0" fill-opacity="1.0" stroke="rgb(0,0,0)" stroke-width="0.0" fill="rgb(169,169,169)" stroke-linecap="butt" stroke-miterlimit="10.0">
    <path d="M 330.2752,108.2569 l -0.0000,-36.6972 h -36.6972 l -0.0000,36.6972 Z"/>
  </g>
  <g stroke-linejoin="miter" stroke-opacity="1.0" fill-opacity="1.0" stroke="rgb(0,0,0)" stroke-width="0.0" fill="rgb(255,255,224)" stroke-linecap="butt" stroke-miterlimit="10.0">
    <path d="M 329.3578,107.3394 l -0.0000,-34.8624 h -34.8624 l -0.0000,34.8624 Z"/>
  </g>
  <g stroke-linejoin="miter" stroke-opacity="1.0" fill-opacity="1.0" stroke="rgb(0,0,0)" stroke-width="0.0" fill="rgb(169,169,169)" stroke-linecap="butt" stroke-miterlimit="10.0">
    <path d="M 330.2752,144.9541 l -0.0000,-36.6972 h -36.6972 l -0.0000,36.6972 Z"/>
  </g>
  <g stroke-linejoin="miter" stroke-opacity="1.0" fill-opacity="1.0" stroke="rgb(0,0,0)" stroke-width="0.0" fill="rgb(255,255,224)" stroke-linecap="butt" stroke-miterlimit="10.0">
    <path d="M 329.3578,144.0367 l -0.0000,-34.8624 h -34.8624 l -0.0000,34.8624 Z"/>
  </g>
  <g stroke-linejoin="miter" stroke-opacity="1.0" fill-opacity="1.0" stroke="rgb(0,0,0)" stroke-width="0.0" fill="rgb(169,169,169)" stroke-linecap="butt" stroke-miterlimit="10.0">
    <path d="M 330.2752,181.6514 l -0.0000,-36.6972 h -36.6972 l -0.0000,36.6972 Z"/>
  </g>
  <g stroke-linejoin="miter" stroke-opacity="1.0" fill-opacity="1.0" stroke="rgb(0,0,0)" stroke-width="0.0" fill="rgb(255,255,224)" stroke-linecap="butt" stroke-miterlimit="10.0">
    <path d="M 329.3578,180.7339 l -0.0000,-34.8624 h -34.8624 l -0.0000,34.8624 Z"/>
  </g>
  <g stroke-linejoin="miter" stroke-opacity="1.0" fill-opacity="1.0" stroke="rgb(0,0,0)" stroke-width="0.0" fill="rgb(169,169,169)" stroke-linecap="butt" stroke-miterlimit="10.0">
    <path d="M 330.2752,218.3486 l -0.0000,-36.6972 h -36.6972 l -0.0000,36.6972 Z"/>
  </g>
  <g stroke-linejoin="miter" stroke-opacity="1.0" fill-opacity="1.0" stroke="rgb(0,0,0)" stroke-width="0.0" fill="rgb(255,255,224)" stroke-linecap="butt" stroke-miterlimit="10.0">
    <path d="M 329.3578,217.4312 l -0.0000,-34.8624 h -34.8624 l -0.0000,34.8624 Z"/>
  </g>
  <g stroke-linejoin="miter" stroke-opacity="1.0" fill-opacity="1.0" stroke="rgb(0,0,0)" stroke-width="0.0" fill="rgb(169,169,169)" stroke-linecap="butt" stroke-miterlimit="10.0">
    <path d="M 330.2752,255.0459 l -0.0000,-36.6972 h -36.6972 l -0.0000,36.6972 Z"/>
  </g>
  <g stroke-linejoin="miter" stroke-opacity="1.0" fill-opacity="1.0" stroke="rgb(0,0,0)" stroke-width="0.0" fill="rgb(255,255,224)" stroke-linecap="butt" stroke-miterlimit="10.0">
    <path d="M 329.3578,254.1284 l -0.0000,-34.8624 h -34.8624 l -0.0000,34.8624 Z"/>
  </g>
  <g stroke-linejoin="miter" stroke-opacity="1.0" fill-opacity="1.0" stroke="rgb(0,0,0)" stroke-width="0.0" fill="rgb(169,169,169)" stroke-linecap="butt" stroke-miterlimit="10.0">
    <path d="M 330.2752,291.7431 l -0.0000,-36.6972 h -36.6972 l -0.0000,36.6972 Z"/>
  </g>
  <g stroke-linejoin="miter" stroke-opacity="1.0" fill-opacity="1.0" stroke="rgb(0,0,0)" stroke-width="0.0" fill="rgb(255,255,224)" stroke-linecap="butt" stroke-miterlimit="10.0">
    <path d="M 329.3578,290.8257 l -0.0000,-34.8624 h -34.8624 l -0.0000,34.8624 Z"/>
  </g>
  <g stroke-linejoin="miter" stroke-opacity="1.0" fill-opacity="1.0" stroke="rgb(0,0,0)" stroke-width="0.0" fill="rgb(169,169,169)" stroke-linecap="butt" stroke-miterlimit="10.0">
    <path d="M 330.2752,328.4404 l -0.0000,-36.6972 h -36.6972 l -0.0000,36.6972 Z"/>
  </g>
  <g stroke-linejoin="miter" stroke-opacity="1.0" fill-opacity="1.0" stroke="rgb(0,0,0)" stroke-width="0.0" fill="rgb(255,255,224)" stroke-linecap="butt" stroke-miterlimit="10.0">
    <path d="M 329.3578,327.5229 l -0.0000,-34.8624 h -34.8624 l -0.0000,34.8624 Z"/>
  </g>
  <g stroke-linejoin="miter" stroke-opacity="1.0" fill-opacity="1.0" stroke="rgb(0,0,0)" stroke-width="0.0" fill="rgb(169,169,169)" stroke-linecap="butt" stroke-miterlimit="10.0">
    <path d="M 330.2752,365.1376 l -0.0000,-36.6972 h -36.6972 l -0.0000,36.6972 Z"/>
  </g>
  <g stroke-linejoin="miter" stroke-opacity="1.0" fill-opacity="1.0" stroke="rgb(0,0,0)" stroke-width="0.0" fill="rgb(255,255,224)" stroke-linecap="butt" stroke-miterlimit="10.0">
    <path d="M 329.3578,364.2202 l -0.0000,-34.8624 h -34.8624 l -0.0000,34.8624 Z"/>
  </g>
  <g stroke-linejoin="miter" stroke-opacity="1.0" fill-opacity="1.0" stroke="rgb(0,0,0)" stroke-width="0.0" fill="rgb(169,169,169)" stroke-linecap="butt" stroke-miterlimit="10.0">
    <path d="M 330.2752,401.8349 l -0.0000,-36.6972 h -36.6972 l -0.0000,36.6972 Z"/>
  </g>
  <g stroke-linejoin="miter" stroke-opacity="1.0" fill-opacity="1.0" stroke="rgb(0,0,0)" stroke-width="0.0" fill="rgb(255,255,224)" stroke-linecap="butt" stroke-miterlimit="10.0">
    <path d="M 329.3578,400.9174 l -0.0000,-34.8624 h -34.8624 l -0.0000,34.8624 Z"/>
  </g>
  <g stroke-linejoin="miter" stroke-opacity="1.0" fill-opacity="1.0" stroke="rgb(0,0,0)" stroke-width="0.0" fill="rgb(169,169,169)" stroke-linecap="butt" stroke-miterlimit="10.0">
    <path d="M 293.5780,108.2569 l -0.0000,-36.6972 h -36.6972 l -0.0000,36.6972 Z"/>
  </g>
  <g stroke-linejoin="miter" stroke-opacity="1.0" fill-opacity="1.0" stroke="rgb(0,0,0)" stroke-width="0.0" fill="rgb(255,255,224)" stroke-linecap="butt" stroke-miterlimit="10.0">
    <path d="M 292.6606,107.3394 l -0.0000,-34.8624 h -34.8624 l -0.0000,34.8624 Z"/>
  </g>
  <g stroke-linejoin="miter" stroke-opacity="1.0" fill-opacity="1.0" stroke="rgb(0,0,0)" stroke-width="0.0" fill="rgb(169,169,169)" stroke-linecap="butt" stroke-miterlimit="10.0">
    <path d="M 293.5780,181.6514 l -0.0000,-36.6972 h -36.6972 l -0.0000,36.6972 Z"/>
  </g>
  <g stroke-linejoin="miter" stroke-opacity="1.0" fill-opacity="1.0" stroke="rgb(0,0,0)" stroke-width="0.0" fill="rgb(255,255,224)" stroke-linecap="butt" stroke-miterlimit="10.0">
    <path d="M 292.6606,180.7339 l -0.0000,-34.8624 h -34.8624 l -0.0000,34.8624 Z"/>
  </g>
  <g stroke-linejoin="miter" stroke-opacity="1.0" fill-opacity="1.0" stroke="rgb(0,0,0)" stroke-width="0.0" fill="rgb(169,169,169)" stroke-linecap="butt" stroke-miterlimit="10.0">
    <path d="M 293.5780,218.3486 l -0.0000,-36.6972 h -36.6972 l -0.0000,36.6972 Z"/>
  </g>
  <g stroke-linejoin="miter" stroke-opacity="1.0" fill-opacity="1.0" stroke="rgb(0,0,0)" stroke-width="0.0" fill="rgb(255,255,224)" stroke-linecap="butt" stroke-miterlimit="10.0">
    <path d="M 292.6606,217.4312 l -0.0000,-34.8624 h -34.8624 l -0.0000,34.8624 Z"/>
  </g>
  <g stroke-linejoin="miter" stroke-opacity="1.0" fill-opacity="1.0" stroke="rgb(0,0,0)" stroke-width="0.0" fill="rgb(169,169,169)" stroke-linecap="butt" stroke-miterlimit="10.0">
    <path d="M 293.5780,291.7431 l -0.0000,-36.6972 h -36.6972 l -0.0000,36.6972 Z"/>
  </g>
  <g stroke-linejoin="miter" stroke-opacity="1.0" fill-opacity="1.0" stroke="rgb(0,0,0)" stroke-width="0.0" fill="rgb(255,255,224)" stroke-linecap="butt" stroke-miterlimit="10.0">
    <path d="M 292.6606,290.8257 l -0.0000,-34.8624 h -34.8624 l -0.0000,34.8624 Z"/>
  </g>
  <g stroke-linejoin="miter" stroke-opacity="1.0" fill-opacity="1.0" stroke="rgb(0,0,0)" stroke-width="0.0" fill="rgb(169,169,169)" stroke-linecap="butt" stroke-miterlimit="10.0">
    <path d="M 293.5780,328.4404 l -0.0000,-36.6972 h -36.6972 l -0.0000,36.6972 Z"/>
  </g>
  <g stroke-linejoin="miter" stroke-opacity="1.0" fill-opacity="1.0" stroke="rgb(0,0,0)" stroke-width="0.0" fill="rgb(255,255,224)" stroke-linecap="butt" stroke-miterlimit="10.0">
    <path d="M 292.6606,327.5229 l -0.0000,-34.8624 h -34.8624 l -0.0000,34.8624 Z"/>
  </g>
  <g stroke-linejoin="miter" stroke-opacity="1.0" fill-opacity="1.0" stroke="rgb(0,0,0)" stroke-width="0.0" fill="rgb(169,169,169)" stroke-linecap="butt" stroke-miterlimit="10.0">
    <path d="M 293.5780,401.8349 l -0.0000,-36.6972 h -36.6972 l -0.0000,36.6972 Z"/>
  </g>
  <g stroke-linejoin="miter" stroke-opacity="1.0" fill-opacity="1.0" stroke="rgb(0,0,0)" stroke-width="0.0" fill="rgb(255,255,224)" stroke-linecap="butt" stroke-miterlimit="10.0">
    <path d="M 292.6606,400.9174 l -0.0000,-34.8624 h -34.8624 l -0.0000,34.8624 Z"/>
  </g>
  <g stroke-linejoin="miter" stroke-opacity="1.0" fill-opacity="1.0" stroke="rgb(0,0,0)" stroke-width="0.0" fill="rgb(169,169,169)" stroke-linecap="butt" stroke-miterlimit="10.0">
    <path d="M 256.8807,108.2569 l -0.0000,-36.6972 h -36.6972 l -0.0000,36.6972 Z"/>
  </g>
  <g stroke-linejoin="miter" stroke-opacity="1.0" fill-opacity="1.0" stroke="rgb(0,0,0)" stroke-width="0.0" fill="rgb(255,255,224)" stroke-linecap="butt" stroke-miterlimit="10.0">
    <path d="M 255.9633,107.3394 l -0.0000,-34.8624 h -34.8624 l -0.0000,34.8624 Z"/>
  </g>
  <g stroke-linejoin="miter" stroke-opacity="1.0" fill-opacity="1.0" stroke="rgb(0,0,0)" stroke-width="0.0" fill="rgb(169,169,169)" stroke-linecap="butt" stroke-miterlimit="10.0">
    <path d="M 256.8807,144.9541 l -0.0000,-36.6972 h -36.6972 l -0.0000,36.6972 Z"/>
  </g>
  <g stroke-linejoin="miter" stroke-opacity="1.0" fill-opacity="1.0" stroke="rgb(0,0,0)" stroke-width="0.0" fill="rgb(255,255,224)" stroke-linecap="butt" stroke-miterlimit="10.0">
    <path d="M 255.9633,144.0367 l -0.0000,-34.8624 h -34.8624 l -0.0000,34.8624 Z"/>
  </g>
  <g stroke-linejoin="miter" stroke-opacity="1.0" fill-opacity="1.0" stroke="rgb(0,0,0)" stroke-width="0.0" fill="rgb(169,169,169)" stroke-linecap="butt" stroke-miterlimit="10.0">
    <path d="M 256.8807,181.6514 l -0.0000,-36.6972 h -36.6972 l -0.0000,36.6972 Z"/>
  </g>
  <g stroke-linejoin="miter" stroke-opacity="1.0" fill-opacity="1.0" stroke="rgb(0,0,0)" stroke-width="0.0" fill="rgb(255,255,224)" stroke-linecap="butt" stroke-miterlimit="10.0">
    <path d="M 255.9633,180.7339 l -0.0000,-34.8624 h -34.8624 l -0.0000,34.8624 Z"/>
  </g>
  <g stroke-linejoin="miter" stroke-opacity="1.0" fill-opacity="1.0" stroke="rgb(0,0,0)" stroke-width="0.0" fill="rgb(169,169,169)" stroke-linecap="butt" stroke-miterlimit="10.0">
    <path d="M 256.8807,218.3486 l -0.0000,-36.6972 h -36.6972 l -0.0000,36.6972 Z"/>
  </g>
  <g stroke-linejoin="miter" stroke-opacity="1.0" fill-opacity="1.0" stroke="rgb(0,0,0)" stroke-width="0.0" fill="rgb(255,255,224)" stroke-linecap="butt" stroke-miterlimit="10.0">
    <path d="M 255.9633,217.4312 l -0.0000,-34.8624 h -34.8624 l -0.0000,34.8624 Z"/>
  </g>
  <g stroke-linejoin="miter" stroke-opacity="1.0" fill-opacity="1.0" stroke="rgb(0,0,0)" stroke-width="0.0" fill="rgb(169,169,169)" stroke-linecap="butt" stroke-miterlimit="10.0">
    <path d="M 256.8807,255.0459 l -0.0000,-36.6972 h -36.6972 l -0.0000,36.6972 Z"/>
  </g>
  <g stroke-linejoin="miter" stroke-opacity="1.0" fill-opacity="1.0" stroke="rgb(0,0,0)" stroke-width="0.0" fill="rgb(255,255,224)" stroke-linecap="butt" stroke-miterlimit="10.0">
    <path d="M 255.9633,254.1284 l -0.0000,-34.8624 h -34.8624 l -0.0000,34.8624 Z"/>
  </g>
  <g stroke-linejoin="miter" stroke-opacity="1.0" fill-opacity="1.0" stroke="rgb(0,0,0)" stroke-width="0.0" fill="rgb(169,169,169)" stroke-linecap="butt" stroke-miterlimit="10.0">
    <path d="M 256.8807,291.7431 l -0.0000,-36.6972 h -36.6972 l -0.0000,36.6972 Z"/>
  </g>
  <g stroke-linejoin="miter" stroke-opacity="1.0" fill-opacity="1.0" stroke="rgb(0,0,0)" stroke-width="0.0" fill="rgb(255,255,224)" stroke-linecap="butt" stroke-miterlimit="10.0">
    <path d="M 255.9633,290.8257 l -0.0000,-34.8624 h -34.8624 l -0.0000,34.8624 Z"/>
  </g>
  <g stroke-linejoin="miter" stroke-opacity="1.0" fill-opacity="1.0" stroke="rgb(0,0,0)" stroke-width="0.0" fill="rgb(169,169,169)" stroke-linecap="butt" stroke-miterlimit="10.0">
    <path d="M 256.8807,328.4404 l -0.0000,-36.6972 h -36.6972 l -0.0000,36.6972 Z"/>
  </g>
  <g stroke-linejoin="miter" stroke-opacity="1.0" fill-opacity="1.0" stroke="rgb(0,0,0)" stroke-width="0.0" fill="rgb(255,255,224)" stroke-linecap="butt" stroke-miterlimit="10.0">
    <path d="M 255.9633,327.5229 l -0.0000,-34.8624 h -34.8624 l -0.0000,34.8624 Z"/>
  </g>
  <g stroke-linejoin="miter" stroke-opacity="1.0" fill-opacity="1.0" stroke="rgb(0,0,0)" stroke-width="0.0" fill="rgb(169,169,169)" stroke-linecap="butt" stroke-miterlimit="10.0">
    <path d="M 256.8807,365.1376 l -0.0000,-36.6972 h -36.6972 l -0.0000,36.6972 Z"/>
  </g>
  <g stroke-linejoin="miter" stroke-opacity="1.0" fill-opacity="1.0" stroke="rgb(0,0,0)" stroke-width="0.0" fill="rgb(255,255,224)" stroke-linecap="butt" stroke-miterlimit="10.0">
    <path d="M 255.9633,364.2202 l -0.0000,-34.8624 h -34.8624 l -0.0000,34.8624 Z"/>
  </g>
  <g stroke-linejoin="miter" stroke-opacity="1.0" fill-opacity="1.0" stroke="rgb(0,0,0)" stroke-width="0.0" fill="rgb(169,169,169)" stroke-linecap="butt" stroke-miterlimit="10.0">
    <path d="M 256.8807,401.8349 l -0.0000,-36.6972 h -36.6972 l -0.0000,36.6972 Z"/>
  </g>
  <g stroke-linejoin="miter" stroke-opacity="1.0" fill-opacity="1.0" stroke="rgb(0,0,0)" stroke-width="0.0" fill="rgb(255,255,224)" stroke-linecap="butt" stroke-miterlimit="10.0">
    <path d="M 255.9633,400.9174 l -0.0000,-34.8624 h -34.8624 l -0.0000,34.8624 Z"/>
  </g>
  <g stroke-linejoin="miter" stroke-opacity="1.0" fill-opacity="1.0" stroke="rgb(0,0,0)" stroke-width="0.0" fill="rgb(169,169,169)" stroke-linecap="butt" stroke-miterlimit="10.0">
    <path d="M 220.1835,108.2569 l -0.0000,-36.6972 h -36.6972 l -0.0000,36.6972 Z"/>
  </g>
  <g stroke-linejoin="miter" stroke-opacity="1.0" fill-opacity="1.0" stroke="rgb(0,0,0)" stroke-width="0.0" fill="rgb(255,255,224)" stroke-linecap="butt" stroke-miterlimit="10.0">
    <path d="M 219.2661,107.3394 l -0.0000,-34.8624 h -34.8624 l -0.0000,34.8624 Z"/>
  </g>
  <g stroke-linejoin="miter" stroke-opacity="1.0" fill-opacity="1.0" stroke="rgb(0,0,0)" stroke-width="0.0" fill="rgb(169,169,169)" stroke-linecap="butt" stroke-miterlimit="10.0">
    <path d="M 220.1835,144.9541 l -0.0000,-36.6972 h -36.6972 l -0.0000,36.6972 Z"/>
  </g>
  <g stroke-linejoin="miter" stroke-opacity="1.0" fill-opacity="1.0" stroke="rgb(0,0,0)" stroke-width="0.0" fill="rgb(255,255,224)" stroke-linecap="butt" stroke-miterlimit="10.0">
    <path d="M 219.2661,144.0367 l -0.0000,-34.8624 h -34.8624 l -0.0000,34.8624 Z"/>
  </g>
  <g stroke-linejoin="miter" stroke-opacity="1.0" fill-opacity="1.0" stroke="rgb(0,0,0)" stroke-width="0.0" fill="rgb(169,169,169)" stroke-linecap="butt" stroke-miterlimit="10.0">
    <path d="M 220.1835,181.6514 l -0.0000,-36.6972 h -36.6972 l -0.0000,36.6972 Z"/>
  </g>
  <g stroke-linejoin="miter" stroke-opacity="1.0" fill-opacity="1.0" stroke="rgb(0,0,0)" stroke-width="0.0" fill="rgb(255,255,224)" stroke-linecap="butt" stroke-miterlimit="10.0">
    <path d="M 219.2661,180.7339 l -0.0000,-34.8624 h -34.8624 l -0.0000,34.8624 Z"/>
  </g>
  <g stroke-linejoin="miter" stroke-opacity="1.0" fill-opacity="1.0" stroke="rgb(0,0,0)" stroke-width="0.0" fill="rgb(169,169,169)" stroke-linecap="butt" stroke-miterlimit="10.0">
    <path d="M 220.1835,328.4404 l -0.0000,-36.6972 h -36.6972 l -0.0000,36.6972 Z"/>
  </g>
  <g stroke-linejoin="miter" stroke-opacity="1.0" fill-opacity="1.0" stroke="rgb(0,0,0)" stroke-width="0.0" fill="rgb(255,255,224)" stroke-linecap="butt" stroke-miterlimit="10.0">
    <path d="M 219.2661,327.5229 l -0.0000,-34.8624 h -34.8624 l -0.0000,34.8624 Z"/>
  </g>
  <g stroke-linejoin="miter" stroke-opacity="1.0" fill-opacity="1.0" stroke="rgb(0,0,0)" stroke-width="0.0" fill="rgb(169,169,169)" stroke-linecap="butt" stroke-miterlimit="10.0">
    <path d="M 220.1835,365.1376 l -0.0000,-36.6972 h -36.6972 l -0.0000,36.6972 Z"/>
  </g>
  <g stroke-linejoin="miter" stroke-opacity="1.0" fill-opacity="1.0" stroke="rgb(0,0,0)" stroke-width="0.0" fill="rgb(255,255,224)" stroke-linecap="butt" stroke-miterlimit="10.0">
    <path d="M 219.2661,364.2202 l -0.0000,-34.8624 h -34.8624 l -0.0000,34.8624 Z"/>
  </g>
  <g stroke-linejoin="miter" stroke-opacity="1.0" fill-opacity="1.0" stroke="rgb(0,0,0)" stroke-width="0.0" fill="rgb(169,169,169)" stroke-linecap="butt" stroke-miterlimit="10.0">
    <path d="M 220.1835,401.8349 l -0.0000,-36.6972 h -36.6972 l -0.0000,36.6972 Z"/>
  </g>
  <g stroke-linejoin="miter" stroke-opacity="1.0" fill-opacity="1.0" stroke="rgb(0,0,0)" stroke-width="0.0" fill="rgb(255,255,224)" stroke-linecap="butt" stroke-miterlimit="10.0">
    <path d="M 219.2661,400.9174 l -0.0000,-34.8624 h -34.8624 l -0.0000,34.8624 Z"/>
  </g>
  <g stroke-linejoin="miter" stroke-opacity="1.0" fill-opacity="1.0" stroke="rgb(0,0,0)" stroke-width="0.0" fill="rgb(169,169,169)" stroke-linecap="butt" stroke-miterlimit="10.0">
    <path d="M 183.4862,108.2569 l -0.0000,-36.6972 h -36.6972 l -0.0000,36.6972 Z"/>
  </g>
  <g stroke-linejoin="miter" stroke-opacity="1.0" fill-opacity="1.0" stroke="rgb(0,0,0)" stroke-width="0.0" fill="rgb(255,255,224)" stroke-linecap="butt" stroke-miterlimit="10.0">
    <path d="M 182.5688,107.3394 l -0.0000,-34.8624 h -34.8624 l -0.0000,34.8624 Z"/>
  </g>
  <g stroke-linejoin="miter" stroke-opacity="1.0" fill-opacity="1.0" stroke="rgb(0,0,0)" stroke-width="0.0" fill="rgb(169,169,169)" stroke-linecap="butt" stroke-miterlimit="10.0">
    <path d="M 183.4862,181.6514 l -0.0000,-36.6972 h -36.6972 l -0.0000,36.6972 Z"/>
  </g>
  <g stroke-linejoin="miter" stroke-opacity="1.0" fill-opacity="1.0" stroke="rgb(0,0,0)" stroke-width="0.0" fill="rgb(255,255,224)" stroke-linecap="butt" stroke-miterlimit="10.0">
    <path d="M 182.5688,180.7339 l -0.0000,-34.8624 h -34.8624 l -0.0000,34.8624 Z"/>
  </g>
  <g stroke-linejoin="miter" stroke-opacity="1.0" fill-opacity="1.0" stroke="rgb(0,0,0)" stroke-width="0.0" fill="rgb(169,169,169)" stroke-linecap="butt" stroke-miterlimit="10.0">
    <path d="M 183.4862,328.4404 l -0.0000,-36.6972 h -36.6972 l -0.0000,36.6972 Z"/>
  </g>
  <g stroke-linejoin="miter" stroke-opacity="1.0" fill-opacity="1.0" stroke="rgb(0,0,0)" stroke-width="0.0" fill="rgb(255,255,224)" stroke-linecap="butt" stroke-miterlimit="10.0">
    <path d="M 182.5688,327.5229 l -0.0000,-34.8624 h -34.8624 l -0.0000,34.8624 Z"/>
  </g>
  <g stroke-linejoin="miter" stroke-opacity="1.0" fill-opacity="1.0" stroke="rgb(0,0,0)" stroke-width="0.0" fill="rgb(169,169,169)" stroke-linecap="butt" stroke-miterlimit="10.0">
    <path d="M 183.4862,401.8349 l -0.0000,-36.6972 h -36.6972 l -0.0000,36.6972 Z"/>
  </g>
  <g stroke-linejoin="miter" stroke-opacity="1.0" fill-opacity="1.0" stroke="rgb(0,0,0)" stroke-width="0.0" fill="rgb(255,255,224)" stroke-linecap="butt" stroke-miterlimit="10.0">
    <path d="M 182.5688,400.9174 l -0.0000,-34.8624 h -34.8624 l -0.0000,34.8624 Z"/>
  </g>
  <g stroke-linejoin="miter" stroke-opacity="1.0" fill-opacity="1.0" stroke="rgb(0,0,0)" stroke-width="0.0" fill="rgb(169,169,169)" stroke-linecap="butt" stroke-miterlimit="10.0">
    <path d="M 146.7890,108.2569 l -0.0000,-36.6972 h -36.6972 l -0.0000,36.6972 Z"/>
  </g>
  <g stroke-linejoin="miter" stroke-opacity="1.0" fill-opacity="1.0" stroke="rgb(0,0,0)" stroke-width="0.0" fill="rgb(255,255,224)" stroke-linecap="butt" stroke-miterlimit="10.0">
    <path d="M 145.8716,107.3394 l -0.0000,-34.8624 h -34.8624 l -0.0000,34.8624 Z"/>
  </g>
  <g stroke-linejoin="miter" stroke-opacity="1.0" fill-opacity="1.0" stroke="rgb(0,0,0)" stroke-width="0.0" fill="rgb(169,169,169)" stroke-linecap="butt" stroke-miterlimit="10.0">
    <path d="M 146.7890,144.9541 l -0.0000,-36.6972 h -36.6972 l -0.0000,36.6972 Z"/>
  </g>
  <g stroke-linejoin="miter" stroke-opacity="1.0" fill-opacity="1.0" stroke="rgb(0,0,0)" stroke-width="0.0" fill="rgb(255,255,224)" stroke-linecap="butt" stroke-miterlimit="10.0">
    <path d="M 145.8716,144.0367 l -0.0000,-34.8624 h -34.8624 l -0.0000,34.8624 Z"/>
  </g>
  <g stroke-linejoin="miter" stroke-opacity="1.0" fill-opacity="1.0" stroke="rgb(0,0,0)" stroke-width="0.0" fill="rgb(169,169,169)" stroke-linecap="butt" stroke-miterlimit="10.0">
    <path d="M 146.7890,181.6514 l -0.0000,-36.6972 h -36.6972 l -0.0000,36.6972 Z"/>
  </g>
  <g stroke-linejoin="miter" stroke-opacity="1.0" fill-opacity="1.0" stroke="rgb(0,0,0)" stroke-width="0.0" fill="rgb(255,255,224)" stroke-linecap="butt" stroke-miterlimit="10.0">
    <path d="M 145.8716,180.7339 l -0.0000,-34.8624 h -34.8624 l -0.0000,34.8624 Z"/>
  </g>
  <g stroke-linejoin="miter" stroke-opacity="1.0" fill-opacity="1.0" stroke="rgb(0,0,0)" stroke-width="0.0" fill="rgb(169,169,169)" stroke-linecap="butt" stroke-miterlimit="10.0">
    <path d="M 146.7890,328.4404 l -0.0000,-36.6972 h -36.6972 l -0.0000,36.6972 Z"/>
  </g>
  <g stroke-linejoin="miter" stroke-opacity="1.0" fill-opacity="1.0" stroke="rgb(0,0,0)" stroke-width="0.0" fill="rgb(255,255,224)" stroke-linecap="butt" stroke-miterlimit="10.0">
    <path d="M 145.8716,327.5229 l -0.0000,-34.8624 h -34.8624 l -0.0000,34.8624 Z"/>
  </g>
  <g stroke-linejoin="miter" stroke-opacity="1.0" fill-opacity="1.0" stroke="rgb(0,0,0)" stroke-width="0.0" fill="rgb(169,169,169)" stroke-linecap="butt" stroke-miterlimit="10.0">
    <path d="M 146.7890,365.1376 l -0.0000,-36.6972 h -36.6972 l -0.0000,36.6972 Z"/>
  </g>
  <g stroke-linejoin="miter" stroke-opacity="1.0" fill-opacity="1.0" stroke="rgb(0,0,0)" stroke-width="0.0" fill="rgb(255,255,224)" stroke-linecap="butt" stroke-miterlimit="10.0">
    <path d="M 145.8716,364.2202 l -0.0000,-34.8624 h -34.8624 l -0.0000,34.8624 Z"/>
  </g>
  <g stroke-linejoin="miter" stroke-opacity="1.0" fill-opacity="1.0" stroke="rgb(0,0,0)" stroke-width="0.0" fill="rgb(169,169,169)" stroke-linecap="butt" stroke-miterlimit="10.0">
    <path d="M 146.7890,401.8349 l -0.0000,-36.6972 h -36.6972 l -0.0000,36.6972 Z"/>
  </g>
  <g stroke-linejoin="miter" stroke-opacity="1.0" fill-opacity="1.0" stroke="rgb(0,0,0)" stroke-width="0.0" fill="rgb(255,255,224)" stroke-linecap="butt" stroke-miterlimit="10.0">
    <path d="M 145.8716,400.9174 l -0.0000,-34.8624 h -34.8624 l -0.0000,34.8624 Z"/>
  </g>
  <g stroke-linejoin="miter" stroke-opacity="1.0" fill-opacity="1.0" stroke="rgb(0,0,0)" stroke-width="0.0" fill="rgb(169,169,169)" stroke-linecap="butt" stroke-miterlimit="10.0">
    <path d="M 110.0917,108.2569 l -0.0000,-36.6972 h -36.6972 l -0.0000,36.6972 Z"/>
  </g>
  <g stroke-linejoin="miter" stroke-opacity="1.0" fill-opacity="1.0" stroke="rgb(0,0,0)" stroke-width="0.0" fill="rgb(255,255,224)" stroke-linecap="butt" stroke-miterlimit="10.0">
    <path d="M 109.1743,107.3394 l -0.0000,-34.8624 h -34.8624 l -0.0000,34.8624 Z"/>
  </g>
  <g stroke-linejoin="miter" stroke-opacity="1.0" fill-opacity="1.0" stroke="rgb(0,0,0)" stroke-width="0.0" fill="rgb(169,169,169)" stroke-linecap="butt" stroke-miterlimit="10.0">
    <path d="M 110.0917,144.9541 l -0.0000,-36.6972 h -36.6972 l -0.0000,36.6972 Z"/>
  </g>
  <g stroke-linejoin="miter" stroke-opacity="1.0" fill-opacity="1.0" stroke="rgb(0,0,0)" stroke-width="0.0" fill="rgb(255,255,224)" stroke-linecap="butt" stroke-miterlimit="10.0">
    <path d="M 109.1743,144.0367 l -0.0000,-34.8624 h -34.8624 l -0.0000,34.8624 Z"/>
  </g>
  <g stroke-linejoin="miter" stroke-opacity="1.0" fill-opacity="1.0" stroke="rgb(0,0,0)" stroke-width="0.0" fill="rgb(169,169,169)" stroke-linecap="butt" stroke-miterlimit="10.0">
    <path d="M 110.0917,181.6514 l -0.0000,-36.6972 h -36.6972 l -0.0000,36.6972 Z"/>
  </g>
  <g stroke-linejoin="miter" stroke-opacity="1.0" fill-opacity="1.0" stroke="rgb(0,0,0)" stroke-width="0.0" fill="rgb(255,255,224)" stroke-linecap="butt" stroke-miterlimit="10.0">
    <path d="M 109.1743,180.7339 l -0.0000,-34.8624 h -34.8624 l -0.0000,34.8624 Z"/>
  </g>
  <g stroke-linejoin="miter" stroke-opacity="1.0" fill-opacity="1.0" stroke="rgb(0,0,0)" stroke-width="0.0" fill="rgb(169,169,169)" stroke-linecap="butt" stroke-miterlimit="10.0">
    <path d="M 110.0917,218.3486 l -0.0000,-36.6972 h -36.6972 l -0.0000,36.6972 Z"/>
  </g>
  <g stroke-linejoin="miter" stroke-opacity="1.0" fill-opacity="1.0" stroke="rgb(0,0,0)" stroke-width="0.0" fill="rgb(255,255,224)" stroke-linecap="butt" stroke-miterlimit="10.0">
    <path d="M 109.1743,217.4312 l -0.0000,-34.8624 h -34.8624 l -0.0000,34.8624 Z"/>
  </g>
  <g stroke-linejoin="miter" stroke-opacity="1.0" fill-opacity="1.0" stroke="rgb(0,0,0)" stroke-width="0.0" fill="rgb(169,169,169)" stroke-linecap="butt" stroke-miterlimit="10.0">
    <path d="M 110.0917,255.0459 l -0.0000,-36.6972 h -36.6972 l -0.0000,36.6972 Z"/>
  </g>
  <g stroke-linejoin="miter" stroke-opacity="1.0" fill-opacity="1.0" stroke="rgb(0,0,0)" stroke-width="0.0" fill="rgb(255,255,224)" stroke-linecap="butt" stroke-miterlimit="10.0">
    <path d="M 109.1743,254.1284 l -0.0000,-34.8624 h -34.8624 l -0.0000,34.8624 Z"/>
  </g>
  <g stroke-linejoin="miter" stroke-opacity="1.0" fill-opacity="1.0" stroke="rgb(0,0,0)" stroke-width="0.0" fill="rgb(169,169,169)" stroke-linecap="butt" stroke-miterlimit="10.0">
    <path d="M 110.0917,291.7431 l -0.0000,-36.6972 h -36.6972 l -0.0000,36.6972 Z"/>
  </g>
  <g stroke-linejoin="miter" stroke-opacity="1.0" fill-opacity="1.0" stroke="rgb(0,0,0)" stroke-width="0.0" fill="rgb(255,255,224)" stroke-linecap="butt" stroke-miterlimit="10.0">
    <path d="M 109.1743,290.8257 l -0.0000,-34.8624 h -34.8624 l -0.0000,34.8624 Z"/>
  </g>
  <g stroke-linejoin="miter" stroke-opacity="1.0" fill-opacity="1.0" stroke="rgb(0,0,0)" stroke-width="0.0" fill="rgb(169,169,169)" stroke-linecap="butt" stroke-miterlimit="10.0">
    <path d="M 110.0917,328.4404 l -0.0000,-36.6972 h -36.6972 l -0.0000,36.6972 Z"/>
  </g>
  <g stroke-linejoin="miter" stroke-opacity="1.0" fill-opacity="1.0" stroke="rgb(0,0,0)" stroke-width="0.0" fill="rgb(255,255,224)" stroke-linecap="butt" stroke-miterlimit="10.0">
    <path d="M 109.1743,327.5229 l -0.0000,-34.8624 h -34.8624 l -0.0000,34.8624 Z"/>
  </g>
  <g stroke-linejoin="miter" stroke-opacity="1.0" fill-opacity="1.0" stroke="rgb(0,0,0)" stroke-width="0.0" fill="rgb(169,169,169)" stroke-linecap="butt" stroke-miterlimit="10.0">
    <path d="M 110.0917,365.1376 l -0.0000,-36.6972 h -36.6972 l -0.0000,36.6972 Z"/>
  </g>
  <g stroke-linejoin="miter" stroke-opacity="1.0" fill-opacity="1.0" stroke="rgb(0,0,0)" stroke-width="0.0" fill="rgb(255,255,224)" stroke-linecap="butt" stroke-miterlimit="10.0">
    <path d="M 109.1743,364.2202 l -0.0000,-34.8624 h -34.8624 l -0.0000,34.8624 Z"/>
  </g>
  <g stroke-linejoin="miter" stroke-opacity="1.0" fill-opacity="1.0" stroke="rgb(0,0,0)" stroke-width="0.0" fill="rgb(169,169,169)" stroke-linecap="butt" stroke-miterlimit="10.0">
    <path d="M 110.0917,401.8349 l -0.0000,-36.6972 h -36.6972 l -0.0000,36.6972 Z"/>
  </g>
  <g stroke-linejoin="miter" stroke-opacity="1.0" fill-opacity="1.0" stroke="rgb(0,0,0)" stroke-width="0.0" fill="rgb(255,255,224)" stroke-linecap="butt" stroke-miterlimit="10.0">
    <path d="M 109.1743,400.9174 l -0.0000,-34.8624 h -34.8624 l -0.0000,34.8624 Z"/>
  </g>
  <g stroke-linejoin="miter" stroke-opacity="1.0" fill-opacity="1.0" stroke="rgb(0,0,0)" stroke-width="0.0" fill="rgb(169,169,169)" stroke-linecap="butt" stroke-miterlimit="10.0">
    <path d="M 73.3945,108.2569 l -0.0000,-36.6972 h -36.6972 l -0.0000,36.6972 Z"/>
  </g>
  <g stroke-linejoin="miter" stroke-opacity="1.0" fill-opacity="1.0" stroke="rgb(0,0,0)" stroke-width="0.0" fill="rgb(255,255,224)" stroke-linecap="butt" stroke-miterlimit="10.0">
    <path d="M 72.4771,107.3394 l -0.0000,-34.8624 h -34.8624 l -0.0000,34.8624 Z"/>
  </g>
  <g stroke-linejoin="miter" stroke-opacity="1.0" fill-opacity="1.0" stroke="rgb(0,0,0)" stroke-width="0.0" fill="rgb(169,169,169)" stroke-linecap="butt" stroke-miterlimit="10.0">
    <path d="M 73.3945,181.6514 l -0.0000,-36.6972 h -36.6972 l -0.0000,36.6972 Z"/>
  </g>
  <g stroke-linejoin="miter" stroke-opacity="1.0" fill-opacity="1.0" stroke="rgb(0,0,0)" stroke-width="0.0" fill="rgb(255,255,224)" stroke-linecap="butt" stroke-miterlimit="10.0">
    <path d="M 72.4771,180.7339 l -0.0000,-34.8624 h -34.8624 l -0.0000,34.8624 Z"/>
  </g>
  <g stroke-linejoin="miter" stroke-opacity="1.0" fill-opacity="1.0" stroke="rgb(0,0,0)" stroke-width="0.0" fill="rgb(169,169,169)" stroke-linecap="butt" stroke-miterlimit="10.0">
    <path d="M 73.3945,218.3486 l -0.0000,-36.6972 h -36.6972 l -0.0000,36.6972 Z"/>
  </g>
  <g stroke-linejoin="miter" stroke-opacity="1.0" fill-opacity="1.0" stroke="rgb(0,0,0)" stroke-width="0.0" fill="rgb(255,255,224)" stroke-linecap="butt" stroke-miterlimit="10.0">
    <path d="M 72.4771,217.4312 l -0.0000,-34.8624 h -34.8624 l -0.0000,34.8624 Z"/>
  </g>
  <g stroke-linejoin="miter" stroke-opacity="1.0" fill-opacity="1.0" stroke="rgb(0,0,0)" stroke-width="0.0" fill="rgb(169,169,169)" stroke-linecap="butt" stroke-miterlimit="10.0">
    <path d="M 73.3945,291.7431 l -0.0000,-36.6972 h -36.6972 l -0.0000,36.6972 Z"/>
  </g>
  <g stroke-linejoin="miter" stroke-opacity="1.0" fill-opacity="1.0" stroke="rgb(0,0,0)" stroke-width="0.0" fill="rgb(255,255,224)" stroke-linecap="butt" stroke-miterlimit="10.0">
    <path d="M 72.4771,290.8257 l -0.0000,-34.8624 h -34.8624 l -0.0000,34.8624 Z"/>
  </g>
  <g stroke-linejoin="miter" stroke-opacity="1.0" fill-opacity="1.0" stroke="rgb(0,0,0)" stroke-width="0.0" fill="rgb(169,169,169)" stroke-linecap="butt" stroke-miterlimit="10.0">
    <path d="M 73.3945,328.4404 l -0.0000,-36.6972 h -36.6972 l -0.0000,36.6972 Z"/>
  </g>
  <g stroke-linejoin="miter" stroke-opacity="1.0" fill-opacity="1.0" stroke="rgb(0,0,0)" stroke-width="0.0" fill="rgb(255,255,224)" stroke-linecap="butt" stroke-miterlimit="10.0">
    <path d="M 72.4771,327.5229 l -0.0000,-34.8624 h -34.8624 l -0.0000,34.8624 Z"/>
  </g>
  <g stroke-linejoin="miter" stroke-opacity="1.0" fill-opacity="1.0" stroke="rgb(0,0,0)" stroke-width="0.0" fill="rgb(169,169,169)" stroke-linecap="butt" stroke-miterlimit="10.0">
    <path d="M 73.3945,401.8349 l -0.0000,-36.6972 h -36.6972 l -0.0000,36.6972 Z"/>
  </g>
  <g stroke-linejoin="miter" stroke-opacity="1.0" fill-opacity="1.0" stroke="rgb(0,0,0)" stroke-width="0.0" fill="rgb(255,255,224)" stroke-linecap="butt" stroke-miterlimit="10.0">
    <path d="M 72.4771,400.9174 l -0.0000,-34.8624 h -34.8624 l -0.0000,34.8624 Z"/>
  </g>
  <g stroke-linejoin="miter" stroke-opacity="1.0" fill-opacity="1.0" stroke="rgb(0,0,0)" stroke-width="0.0" fill="rgb(169,169,169)" stroke-linecap="butt" stroke-miterlimit="10.0">
    <path d="M 36.6972,108.2569 l -0.0000,-36.6972 h -36.6972 l -0.0000,36.6972 Z"/>
  </g>
  <g stroke-linejoin="miter" stroke-opacity="1.0" fill-opacity="1.0" stroke="rgb(0,0,0)" stroke-width="0.0" fill="rgb(255,255,224)" stroke-linecap="butt" stroke-miterlimit="10.0">
    <path d="M 35.7798,107.3394 l -0.0000,-34.8624 h -34.8624 l -0.0000,34.8624 Z"/>
  </g>
  <g stroke-linejoin="miter" stroke-opacity="1.0" fill-opacity="1.0" stroke="rgb(0,0,0)" stroke-width="0.0" fill="rgb(169,169,169)" stroke-linecap="butt" stroke-miterlimit="10.0">
    <path d="M 36.6972,144.9541 l -0.0000,-36.6972 h -36.6972 l -0.0000,36.6972 Z"/>
  </g>
  <g stroke-linejoin="miter" stroke-opacity="1.0" fill-opacity="1.0" stroke="rgb(0,0,0)" stroke-width="0.0" fill="rgb(255,255,224)" stroke-linecap="butt" stroke-miterlimit="10.0">
    <path d="M 35.7798,144.0367 l -0.0000,-34.8624 h -34.8624 l -0.0000,34.8624 Z"/>
  </g>
  <g stroke-linejoin="miter" stroke-opacity="1.0" fill-opacity="1.0" stroke="rgb(0,0,0)" stroke-width="0.0" fill="rgb(169,169,169)" stroke-linecap="butt" stroke-miterlimit="10.0">
    <path d="M 36.6972,181.6514 l -0.0000,-36.6972 h -36.6972 l -0.0000,36.6972 Z"/>
  </g>
  <g stroke-linejoin="miter" stroke-opacity="1.0" fill-opacity="1.0" stroke="rgb(0,0,0)" stroke-width="0.0" fill="rgb(255,255,224)" stroke-linecap="butt" stroke-miterlimit="10.0">
    <path d="M 35.7798,180.7339 l -0.0000,-34.8624 h -34.8624 l -0.0000,34.8624 Z"/>
  </g>
  <g stroke-linejoin="miter" stroke-opacity="1.0" fill-opacity="1.0" stroke="rgb(0,0,0)" stroke-width="0.0" fill="rgb(169,169,169)" stroke-linecap="butt" stroke-miterlimit="10.0">
    <path d="M 36.6972,218.3486 l -0.0000,-36.6972 h -36.6972 l -0.0000,36.6972 Z"/>
  </g>
  <g stroke-linejoin="miter" stroke-opacity="1.0" fill-opacity="1.0" stroke="rgb(0,0,0)" stroke-width="0.0" fill="rgb(255,255,224)" stroke-linecap="butt" stroke-miterlimit="10.0">
    <path d="M 35.7798,217.4312 l -0.0000,-34.8624 h -34.8624 l -0.0000,34.8624 Z"/>
  </g>
  <g stroke-linejoin="miter" stroke-opacity="1.0" fill-opacity="1.0" stroke="rgb(0,0,0)" stroke-width="0.0" fill="rgb(169,169,169)" stroke-linecap="butt" stroke-miterlimit="10.0">
    <path d="M 36.6972,255.0459 l -0.0000,-36.6972 h -36.6972 l -0.0000,36.6972 Z"/>
  </g>
  <g stroke-linejoin="miter" stroke-opacity="1.0" fill-opacity="1.0" stroke="rgb(0,0,0)" stroke-width="0.0" fill="rgb(255,255,224)" stroke-linecap="butt" stroke-miterlimit="10.0">
    <path d="M 35.7798,254.1284 l -0.0000,-34.8624 h -34.8624 l -0.0000,34.8624 Z"/>
  </g>
  <g stroke-linejoin="miter" stroke-opacity="1.0" fill-opacity="1.0" stroke="rgb(0,0,0)" stroke-width="0.0" fill="rgb(169,169,169)" stroke-linecap="butt" stroke-miterlimit="10.0">
    <path d="M 36.6972,291.7431 l -0.0000,-36.6972 h -36.6972 l -0.0000,36.6972 Z"/>
  </g>
  <g stroke-linejoin="miter" stroke-opacity="1.0" fill-opacity="1.0" stroke="rgb(0,0,0)" stroke-width="0.0" fill="rgb(255,255,224)" stroke-linecap="butt" stroke-miterlimit="10.0">
    <path d="M 35.7798,290.8257 l -0.0000,-34.8624 h -34.8624 l -0.0000,34.8624 Z"/>
  </g>
  <g stroke-linejoin="miter" stroke-opacity="1.0" fill-opacity="1.0" stroke="rgb(0,0,0)" stroke-width="0.0" fill="rgb(169,169,169)" stroke-linecap="butt" stroke-miterlimit="10.0">
    <path d="M 36.6972,328.4404 l -0.0000,-36.6972 h -36.6972 l -0.0000,36.6972 Z"/>
  </g>
  <g stroke-linejoin="miter" stroke-opacity="1.0" fill-opacity="1.0" stroke="rgb(0,0,0)" stroke-width="0.0" fill="rgb(255,255,224)" stroke-linecap="butt" stroke-miterlimit="10.0">
    <path d="M 35.7798,327.5229 l -0.0000,-34.8624 h -34.8624 l -0.0000,34.8624 Z"/>
  </g>
  <g stroke-linejoin="miter" stroke-opacity="1.0" fill-opacity="1.0" stroke="rgb(0,0,0)" stroke-width="0.0" fill="rgb(169,169,169)" stroke-linecap="butt" stroke-miterlimit="10.0">
    <path d="M 36.6972,365.1376 l -0.0000,-36.6972 h -36.6972 l -0.0000,36.6972 Z"/>
  </g>
  <g stroke-linejoin="miter" stroke-opacity="1.0" fill-opacity="1.0" stroke="rgb(0,0,0)" stroke-width="0.0" fill="rgb(255,255,224)" stroke-linecap="butt" stroke-miterlimit="10.0">
    <path d="M 35.7798,364.2202 l -0.0000,-34.8624 h -34.8624 l -0.0000,34.8624 Z"/>
  </g>
  <g stroke-linejoin="miter" stroke-opacity="1.0" fill-opacity="1.0" stroke="rgb(0,0,0)" stroke-width="0.0" fill="rgb(169,169,169)" stroke-linecap="butt" stroke-miterlimit="10.0">
    <path d="M 36.6972,401.8349 l -0.0000,-36.6972 h -36.6972 l -0.0000,36.6972 Z"/>
  </g>
  <g stroke-linejoin="miter" stroke-opacity="1.0" fill-opacity="1.0" stroke="rgb(0,0,0)" stroke-width="0.0" fill="rgb(255,255,224)" stroke-linecap="butt" stroke-miterlimit="10.0">
    <path d="M 35.7798,400.9174 l -0.0000,-34.8624 h -34.8624 l -0.0000,34.8624 Z"/>
  </g>
  <g stroke-linejoin="miter" stroke-opacity="1.0" fill-opacity="1.0" stroke="rgb(0,0,0)" stroke-width="0.0" fill="rgb(139,0,0)" stroke-linecap="butt" stroke-miterlimit="10.0">
    <path d="M 400.0000,33.0275 l -0.0000,-33.0275 h -66.0550 l -0.0000,33.0275 Z"/>
  </g>
  <g stroke-linejoin="miter" stroke-opacity="1.0" fill-opacity="1.0" font-size="22.018348623853207px" stroke="rgb(0,0,0)" stroke-width="1.603665525995385" fill="rgb(255,255,255)" stroke-linecap="butt" font-family="sansserif" stroke-miterlimit="10.0">
    <text dominant-baseline="middle" transform="matrix(1.0000,0.0000,0.0000,1.0000,370.6422,23.8532)" stroke="none" text-anchor="middle">1
    </text>
  </g>
</svg>